<svg width="92" height="60" viewBox="0 0 92 60" fill="none" xmlns="http://www.w3.org/2000/svg">
<path d="M0.357178 38.4831C0.357039 41.4587 1.48125 44.3244 3.50457 46.5062C5.52789 48.688 8.30088 50.0246 11.268 50.2484H78.064C81.5801 50.177 84.9376 48.7716 87.4562 46.317C89.9748 43.8624 91.4661 40.5422 91.6281 37.0291C91.79 33.5159 90.6104 30.0726 88.3282 27.3968C86.0461 24.7209 82.8321 23.0126 79.3375 22.6181C79.1675 17.1985 77.1168 12.0071 73.5371 7.9345C69.9574 3.86191 65.0719 1.16208 59.719 0.29826C54.366 -0.565557 48.8793 0.460493 44.2003 3.20035C39.5213 5.94022 35.9416 10.2231 34.0756 15.3141C32.1527 14.3419 30.0272 13.8379 27.8725 13.8434C24.3441 13.843 20.9484 15.1882 18.3776 17.6048C15.8067 20.0215 14.2543 23.3276 14.0368 26.8493C13.4043 26.7426 12.7639 26.6904 12.1225 26.6932C8.99986 26.6997 6.00737 27.9448 3.80166 30.1551C1.59594 32.3654 0.357171 35.3605 0.357178 38.4831Z" fill="#E7E7E7"/>
<path d="M53.3091 33.1182H38.9722V50.2814H53.3091V33.1182Z" fill="#F3F3F3"/>
<path d="M34.4863 35.6322H57.7951L46.1366 21.9443L34.4863 35.6322Z" fill="#F3F3F3"/>
<path d="M78.861 55.5229H15.0474V60.0007H78.861V55.5229Z" fill="#DBDBDB"/>
<path d="M62.6919 55.5229H15.0474V60.0007H62.6919V55.5229Z" fill="#E7E7E7"/>
</svg>
