<svg width="36" height="36" viewBox="0 0 36 36" fill="none" xmlns="http://www.w3.org/2000/svg">
<rect width="36" height="36" rx="18" fill="#FB8500" fill-opacity="0.12"/>
<path d="M10.1563 26.8577H25.8438C27.448 26.8577 28.448 25.1182 27.6459 23.7327L19.8021 10.1807C19 8.79525 17 8.79525 16.198 10.1807L8.35421 23.7327C7.55213 25.1182 8.55213 26.8577 10.1563 26.8577ZM18 19.5661C17.4271 19.5661 16.9584 19.0973 16.9584 18.5244V16.4411C16.9584 15.8682 17.4271 15.3994 18 15.3994C18.573 15.3994 19.0417 15.8682 19.0417 16.4411V18.5244C19.0417 19.0973 18.573 19.5661 18 19.5661ZM19.0417 23.7327H16.9584V21.6494H19.0417V23.7327Z" fill="#FB8500"/>
</svg>
